# xmcd
#
# Track frame offsets: 
#        151
#        23451
#        40874
#        63173
#        84509
#        101818
#        124978
#        145675
#        166407
#        183765
#
# Disc length: 2716 seconds
#
# Revision: 5
# Processed by: cddbd v1.5.2PL0 Copyright (c) Steve Scherf et al.
# Submitted via: ExactAudioCopy v0.95a5
#
DISCID=780a9a0a
DTITLE=张信哲 - 挚爱
DYEAR=1997
DGENRE=Pop
TTITLE0=用情
TTITLE1=背叛
TTITLE2=多想
TTITLE3=Good Love
TTITLE4=放手
TTITLE5=受罪
TTITLE6=改变
TTITLE7=等你
TTITLE8=快乐
TTITLE9=游戏
EXTD=
EXTT0=
EXTT1=
EXTT2=
EXTT3=
EXTT4=
EXTT5=
EXTT6=
EXTT7=
EXTT8=
EXTT9=
PLAYORDER=
